<?xml version="1.0" encoding="UTF-8" standalone="no"?>
<svg
   xmlns:dc="http://purl.org/dc/elements/1.1/"
   xmlns:cc="http://creativecommons.org/ns#"
   xmlns:rdf="http://www.w3.org/1999/02/22-rdf-syntax-ns#"
   xmlns:svg="http://www.w3.org/2000/svg"
   xmlns="http://www.w3.org/2000/svg"
   xmlns:sodipodi="http://sodipodi.sourceforge.net/DTD/sodipodi-0.dtd"
   xmlns:inkscape="http://www.inkscape.org/namespaces/inkscape"
   sodipodi:docname="logo.svg"
   inkscape:version="1.0 (4035a4fb49, 2020-05-01)"
   id="svg8"
   version="1.1"
   viewBox="0 0 26.4 7.1999998"
   height="7.1999998mm"
   width="26.4mm">
  <defs
     id="defs2" />
  <sodipodi:namedview
     inkscape:window-maximized="0"
     inkscape:window-y="52"
     inkscape:window-x="52"
     inkscape:window-height="967"
     inkscape:window-width="1621"
     showgrid="false"
     inkscape:document-rotation="0"
     inkscape:current-layer="layer1"
     inkscape:document-units="mm"
     inkscape:cy="55.794059"
     inkscape:cx="104.25402"
     inkscape:zoom="5.6"
     inkscape:pageshadow="2"
     inkscape:pageopacity="0.0"
     borderopacity="1.0"
     bordercolor="#666666"
     pagecolor="#ffffff"
     id="base" />
  <metadata
     id="metadata5">
    <rdf:RDF>
      <cc:Work
         rdf:about="">
        <dc:format>image/svg+xml</dc:format>
        <dc:type
           rdf:resource="http://purl.org/dc/dcmitype/StillImage" />
        <dc:title></dc:title>
      </cc:Work>
    </rdf:RDF>
  </metadata>
  <g
     id="layer1"
     inkscape:groupmode="layer"
     inkscape:label="Шар 1">
    <g
       style="fill:#d40000"
       transform="translate(-39.167783,-50.648809)"
       id="g24">
      <path
         id="path34"
         d="m 40.357425,56.812907 -1.069474,-1.017366 v -2.323589 -2.323588 l 1.294406,0.124376 c 0.795923,0.07648 1.534643,-0.0088 1.918229,-0.221545 0.343102,-0.190256 0.98101,-0.346972 1.417573,-0.348256 l 0.79375,-0.0023 -0.683616,0.424426 c -0.921064,0.571847 -2.248266,2.599673 -2.656863,4.05941 -0.279241,0.997603 -0.350091,1.083391 -0.437029,0.529166 -0.05707,-0.363802 -0.212739,-0.774567 -0.345938,-0.912812 -0.428747,-0.44499 -0.258244,-1.905818 0.306191,-2.623381 0.541825,-0.688819 0.542083,-0.69714 0.02164,-0.69714 -1.21382,0 -1.36376,0.23482 -1.36376,2.135768 0,1.652362 0.0734,1.898172 0.821159,2.749817 1.018151,1.159611 1.295507,1.17541 1.295507,0.07379 0,-0.701419 0.146474,-0.92629 0.788453,-1.210457 0.658366,-0.291421 0.887546,-0.662219 1.389062,-2.247401 l 0.60061,-1.898397 0.07737,1.899872 c 0.09432,2.316258 -0.365602,3.568949 -1.582799,4.311054 -1.184521,0.722183 -1.352021,0.690982 -2.584468,-0.481417 z m 6.739457,-1.468399 c -0.797836,-0.797837 -0.828487,-1.397978 -0.115156,-2.25479 0.37798,-0.454008 0.81673,-0.645879 1.512552,-0.661458 1.300985,-0.02913 1.401923,0.471275 0.128997,0.639513 -0.86201,0.113929 -1.012785,0.23551 -1.086214,0.875896 -0.09973,0.86978 0.340929,1.505354 1.043703,1.505354 0.375577,0 0.496769,-0.193644 0.496769,-0.79375 0,-0.542814 0.130518,-0.79375 0.412847,-0.79375 0.315277,0 0.39344,0.234488 0.330729,0.992188 -0.0776,0.937564 -0.136535,0.996696 -1.070581,1.074083 -0.770162,0.06381 -1.135371,-0.06501 -1.653646,-0.583286 z m 3.677112,0.271415 c -0.256599,-0.668687 0.01307,-3.164634 0.35406,-3.277006 0.243714,-0.08031 0.330729,0.384095 0.330729,1.765141 0,1.733134 -0.32475,2.450112 -0.684789,1.511865 z m 1.743123,-1.511865 c 0,-1.381102 0.087,-1.845432 0.330729,-1.765035 0.199335,0.06576 0.362254,0.705206 0.410079,1.609549 0.07796,1.474209 0.09327,1.500451 0.87551,1.500451 0.4634,0 0.727816,0.110585 0.63264,0.264583 -0.08994,0.145521 -0.632745,0.264584 -1.20624,0.264584 h -1.042718 z m 2.910416,0.0068 v -1.867296 l 1.124479,0.08136 c 1.140792,0.08254 1.47777,0.606265 0.396107,0.615623 -0.345647,0.003 -0.62572,0.194415 -0.677449,0.463022 -0.06517,0.338389 0.08954,0.457923 0.592671,0.457923 0.374472,0 0.680859,0.119063 0.680859,0.264583 0,0.145521 -0.297656,0.264584 -0.661459,0.264584 -0.485069,0 -0.661458,0.141111 -0.661458,0.529166 0,0.413843 0.176389,0.529167 0.809365,0.529167 0.472202,0 0.741246,0.110219 0.645843,0.264583 -0.08994,0.145521 -0.632744,0.264584 -1.206239,0.264584 H 55.427533 V 54.11086 Z m 3.07939,1.139694 c 0.351495,-1.428329 1.157772,-3.019384 1.476287,-2.913212 0.28422,0.09474 1.52974,2.889727 1.52974,3.432787 0,0.445114 -0.767296,0.179027 -0.926042,-0.321138 -0.09237,-0.291042 -0.393864,-0.529167 -0.669979,-0.529167 -0.276115,0 -0.629469,0.238125 -0.785229,0.529167 -0.419398,0.783652 -0.834048,0.651953 -0.624777,-0.198437 z m 1.68311,-1.241156 c 0,-0.06417 -0.119063,-0.190262 -0.264583,-0.280199 -0.145521,-0.08994 -0.264584,-0.03743 -0.264584,0.116677 0,0.154109 0.119063,0.280198 0.264584,0.280198 0.14552,0 0.264583,-0.0525 0.264583,-0.116676 z m 2.012682,1.550245 c -0.301103,-0.784663 -0.174003,-1.698152 0.236276,-1.698152 0.264584,0 0.396875,0.264583 0.396875,0.79375 0,0.935246 0.707886,1.090366 1.414201,0.309896 0.887949,-0.981172 0.325149,-1.909629 -1.2039,-1.986093 -1.162343,-0.05813 -1.003919,-0.550651 0.211223,-0.656678 1.941846,-0.169434 2.98768,1.958584 1.527169,3.107422 -0.83706,0.658432 -2.349813,0.734517 -2.581844,0.129855 z"
         style="fill:#d40000;fill-opacity:1;stroke-width:0.264583" />
      <path
         id="path32"
         d="M 40.801897,57.26526 C 39.65086,56.406697 39.287951,55.435374 39.287951,53.213204 V 51.21569 l 1.124479,0.02089 c 1.153762,0.02143 1.132508,0.07893 -0.132292,0.357884 -0.70602,0.155716 -0.727552,0.213306 -0.725861,1.941373 0.0018,1.866817 0.420162,2.872804 1.51293,3.638208 0.66533,0.466015 0.866577,0.274367 0.866577,-0.825246 0,-0.633313 0.142113,-0.909219 0.532068,-1.032987 0.607104,-0.192687 1.167271,-1.162828 1.450806,-2.51262 0.4152,-1.976591 0.688639,-1.725353 0.593448,0.545265 -0.102375,2.441988 -0.394662,3.127079 -1.701857,3.988979 -0.927451,0.611515 -1.097986,0.605381 -2.006352,-0.07217 z m 6.882978,-1.470147 c -0.256639,-0.06693 -0.654911,-0.485814 -0.885049,-0.930852 -0.390238,-0.754636 -0.384331,-0.854836 0.08766,-1.487018 0.739725,-0.990781 2.719213,-1.411046 2.719213,-0.577316 0,0.158354 -0.26332,0.211839 -0.612041,0.124315 -0.387811,-0.09733 -0.83143,0.02404 -1.210864,0.331284 -0.772006,0.625133 -0.547047,1.855261 0.38192,2.088417 0.814777,0.204497 1.23595,-0.08423 1.037043,-0.710936 -0.111817,-0.352305 -0.03441,-0.506901 0.253821,-0.506901 0.280666,0 0.414704,0.246578 0.414704,0.762892 0,0.94158 -0.791947,1.269787 -2.186408,0.906115 z m 3.244742,-1.5211 c 0,-0.980549 0.115087,-1.735407 0.264583,-1.735407 0.146699,0 0.264583,0.700351 0.264583,1.571886 0,0.864536 -0.119062,1.645469 -0.264583,1.735406 -0.166117,0.102666 -0.264583,-0.482322 -0.264583,-1.571885 z m 2.05052,1.521793 c -0.374617,-0.0979 -0.46302,-0.417412 -0.46302,-1.673485 0,-0.853867 0.115572,-1.623912 0.256826,-1.711212 0.346364,-0.214065 0.619709,0.972615 0.486624,2.112591 -0.104501,0.895127 -0.07903,0.925323 0.780501,0.925323 0.524978,0 0.821622,0.108257 0.725007,0.264583 -0.165518,0.267815 -0.939367,0.303432 -1.785938,0.0822 z m 2.447396,-1.564704 v -1.692496 l 1.124479,0.0313 c 1.006215,0.02801 1.041339,0.0491 0.33396,0.200476 -1.134498,0.242784 -1.242809,1.091136 -0.139308,1.091136 0.485136,0 0.760965,0.109704 0.665244,0.264583 -0.08994,0.145521 -0.454151,0.264584 -0.809365,0.264584 -0.469454,0 -0.645843,0.144523 -0.645843,0.529166 0,0.432955 0.176389,0.529167 0.970139,0.529167 1.27716,0 0.911741,0.342968 -0.444283,0.416986 l -1.055023,0.05759 z m 3.114799,1.598692 c -0.07371,-0.0737 0.11291,-0.848362 0.414701,-1.721459 0.679729,-1.966495 1.121466,-1.962283 1.918486,0.01829 0.614592,1.527247 0.552916,2.357084 -0.10189,1.370895 -0.433036,-0.652187 -1.641929,-0.796794 -1.641929,-0.196406 0,0.41242 -0.371965,0.746081 -0.589368,0.528677 z m 1.647701,-1.688073 c 0,-0.136932 -0.119063,-0.322553 -0.264583,-0.41249 -0.145521,-0.08994 -0.264584,0.0221 -0.264584,0.248969 0,0.226869 0.119063,0.41249 0.264584,0.41249 0.14552,0 0.264583,-0.112036 0.264583,-0.248969 z m 2.116667,0.812973 c 0,-0.601244 0.119062,-1.093171 0.264583,-1.093171 0.145521,0 0.264583,0.357188 0.264583,0.79375 0,0.543979 0.130359,0.79375 0.414269,0.79375 1.457957,0 2.032997,-1.760544 0.763907,-2.33878 -0.37065,-0.168879 -0.906431,-0.307053 -1.190625,-0.307053 -0.284195,0 -0.516717,-0.130163 -0.516717,-0.289252 0,-0.18378 0.405545,-0.242406 1.112203,-0.160779 1.365691,0.157752 2.177297,1.007817 1.929375,2.020802 -0.24235,0.990212 -0.716375,1.362028 -1.946843,1.527069 L 62.3067,56.047865 Z M 40.620176,54.672667 C 40.16091,53.81452 40.308469,53.129255 41.1618,52.157364 c 0.67957,-0.773987 2.064619,-1.462746 2.954796,-1.469365 0.109141,-8.12e-4 -0.2577,0.454662 -0.815202,1.012163 -0.557501,0.557502 -1.242111,1.569087 -1.521354,2.247967 -0.560578,1.362846 -0.753691,1.483479 -1.159864,0.724538 z"
         style="fill:#d40000;fill-opacity:1;stroke-width:0.264583" />
      <path
         id="path30"
         d="m 41.892373,56.639648 c 0.06086,-0.765251 0.220107,-1.190625 0.445724,-1.190625 0.561963,0 1.388788,-1.249111 1.581377,-2.389039 0.250211,-1.480981 0.660143,-1.306568 0.660143,0.280871 0,1.734495 -0.520832,2.931407 -1.650546,3.793082 -0.502119,0.382985 -0.962095,0.696336 -1.022168,0.696336 -0.06007,0 -0.06661,-0.535781 -0.01453,-1.190625 z m -1.844421,-0.06615 c -0.329108,-0.419644 -0.319749,-0.429002 0.09989,-0.09989 0.254662,0.199719 0.463021,0.408078 0.463021,0.46302 0,0.217762 -0.217272,0.0776 -0.562915,-0.363126 z m 7.714134,-0.889846 c -0.805793,-0.321574 -1.056515,-0.695309 -1.061751,-1.582688 -0.0046,-0.771742 0.655909,-1.485491 1.451157,-1.568237 0.929607,-0.09673 1.455208,-0.0014 1.455208,0.263844 0,0.142213 -0.336739,0.190621 -0.75044,0.107881 -1.473196,-0.294639 -2.325329,1.710301 -0.986224,2.320438 0.822997,0.374983 1.472081,0.127481 1.472081,-0.561317 0,-0.295609 0.119062,-0.537471 0.264583,-0.537471 0.145521,0 0.264583,0.300604 0.264583,0.668007 0,0.47361 -0.197503,0.743098 -0.678682,0.926042 -0.373275,0.141919 -0.700697,0.250488 -0.727604,0.241264 -0.02691,-0.0092 -0.343217,-0.134218 -0.702911,-0.277763 z m 14.721003,0.118145 c -0.279998,-0.279997 -0.204531,-1.940278 0.08819,-1.940278 0.145521,0 0.264583,0.357188 0.264583,0.79375 0,0.659377 0.106493,0.79375 0.629062,0.79375 0.692427,0 1.074228,-0.364804 1.284669,-1.227482 0.204089,-0.836635 -0.100639,-1.139497 -1.403752,-1.395143 l -1.171437,-0.229813 0.970548,-0.02899 c 0.533801,-0.01594 1.168,0.04678 1.409331,0.139387 0.653897,0.250924 0.969203,1.302503 0.62021,2.06846 -0.376931,0.827274 -2.196578,1.521189 -2.691408,1.026358 z m -11.52278,-1.609549 c -0.01688,-0.909505 0.05946,-1.653646 0.169652,-1.653646 0.110189,0 0.163911,0.565547 0.119381,1.256771 -0.129524,2.010564 -0.255863,2.184042 -0.289033,0.396875 z m 1.556808,-0.06615 c 0,-0.881944 0.117592,-1.5875 0.264583,-1.5875 0.145521,0 0.264583,0.647301 0.264583,1.438445 0,1.424582 0.0083,1.439473 0.859896,1.545157 0.745399,0.0925 0.710169,0.11235 -0.264583,0.149055 l -1.124479,0.04234 z m 2.910416,0 v -1.5875 l 1.124479,0.04234 c 0.974753,0.0367 1.009982,0.05655 0.264584,0.149055 -0.637396,0.0791 -0.859896,0.239298 -0.859896,0.619115 0,0.370174 0.183602,0.512403 0.661458,0.512403 0.363802,0 0.661458,0.119063 0.661458,0.264583 0,0.145521 -0.0893,0.250484 -0.198437,0.233252 -0.703411,-0.111065 -1.124479,0.09254 -1.124479,0.543735 0,0.379817 0.2225,0.540015 0.859896,0.619115 0.745398,0.0925 0.710169,0.11235 -0.264584,0.149055 l -1.124479,0.04234 z m 3.283633,0.727605 c 0.20056,-0.472943 0.493738,-1.187318 0.651505,-1.5875 0.157768,-0.400183 0.406868,-0.727605 0.553556,-0.727605 0.266507,0 0.946794,1.4111 1.236216,2.564248 0.185533,0.739221 -0.327956,0.830131 -0.559964,0.09914 -0.190003,-0.598645 -1.169726,-0.528238 -1.526745,0.10972 -0.42975,0.76792 -0.717061,0.396796 -0.354568,-0.458001 z m 1.478867,-0.992188 c 0,-0.291042 -0.106324,-0.529167 -0.236276,-0.529167 -0.297402,0 -0.574817,0.688213 -0.362855,0.900175 0.318496,0.318496 0.599131,0.144714 0.599131,-0.371008 z m -20.854416,-0.411293 -0.04767,-2.131084 1.124479,-0.0242 c 1.096072,-0.02359 1.101085,-0.01988 0.198437,0.14671 l -0.926041,0.170909 -0.150771,1.984375 -0.150771,1.984375 z m 1.284559,1.222437 c -0.456579,-0.853125 -0.313038,-1.541896 0.518766,-2.489268 0.490169,-0.558272 1.199609,-1.006083 1.859052,-1.173468 l 1.066394,-0.270679 -0.962821,1.065728 c -0.529552,0.586151 -1.193104,1.586318 -1.474559,2.222594 -0.281455,0.636276 -0.561507,1.156866 -0.622338,1.156866 -0.06083,0 -0.233853,-0.230298 -0.384494,-0.511773 z"
         style="fill:#d40000;fill-opacity:1;stroke-width:0.264583" />
      <path
         id="path28"
         d="m 41.892373,56.639648 c 0.06086,-0.765251 0.220107,-1.190625 0.445724,-1.190625 0.566219,0 1.440748,-1.318111 1.62055,-2.442533 0.259961,-1.625702 0.51966,-0.693856 0.354654,1.272559 -0.139288,1.659925 -0.212386,1.821989 -1.197783,2.655581 -0.577193,0.488274 -1.109832,0.889542 -1.183641,0.891707 -0.07381,0.0022 -0.09159,-0.531845 -0.0395,-1.186689 z M 62.76972,55.77625 c -0.34886,-0.07643 -0.452581,-0.341291 -0.420677,-1.074231 l 0.04234,-0.972788 0.106712,0.859896 c 0.09164,0.738476 0.210634,0.859896 0.842691,0.859896 0.772252,0 1.614585,-0.704043 1.607693,-1.34375 -0.0079,-0.736492 -0.496118,-1.130833 -1.627104,-1.314336 l -1.14697,-0.186097 1.10558,-0.03312 c 0.689837,-0.02066 1.261927,0.123231 1.521354,0.382657 0.442648,0.442648 0.547672,1.612613 0.194683,2.168748 -0.256789,0.404568 -1.583839,0.79388 -2.226305,0.653122 z M 47.112058,55.297833 c -1.148153,-1.148153 -0.0063,-2.903335 1.748312,-2.687438 l 0.878622,0.108108 -0.959791,0.04234 c -1.056229,0.0466 -1.421156,0.360419 -1.60388,1.379268 -0.152328,0.849369 0.325808,1.308908 1.361879,1.308908 0.697194,0 0.807405,-0.09738 0.823513,-0.727604 0.01617,-0.632704 0.04591,-0.658586 0.227969,-0.198438 0.115155,0.291042 0.153579,0.677995 0.08539,0.859896 -0.17795,0.474681 -2.064924,0.412044 -2.562012,-0.08504 z m 3.902245,-1.171727 c 0,-0.945885 0.04802,-1.332838 0.106712,-0.859895 0.05869,0.472942 0.05869,1.246849 0,1.719791 -0.05869,0.472943 -0.106712,0.08599 -0.106712,-0.859896 z m 1.741856,1.389063 c -0.08392,-0.651982 0.0221,-2.796737 0.144291,-2.918924 0.08021,-0.08021 0.145833,0.521311 0.145833,1.336709 0,1.474333 0.0048,1.483133 0.859896,1.589254 0.84662,0.105065 0.844578,0.107366 -0.132292,0.149055 -0.545703,0.02329 -1.003681,-0.04695 -1.017728,-0.156094 z m 2.74892,-1.389063 -0.02782,-1.5875 1.099616,0.04234 c 0.975713,0.03757 1.002724,0.05437 0.23972,0.149055 -1.125508,0.139674 -1.224348,1.04116 -0.132292,1.206593 l 0.727604,0.110222 -0.727604,0.03964 c -0.583831,0.03181 -0.727604,0.167034 -0.727604,0.684338 0,0.52907 0.154221,0.663834 0.859896,0.751407 0.783437,0.09722 0.764595,0.110477 -0.211901,0.149055 l -1.071797,0.04234 z m 3.182178,1.190625 C 59.0418,54.023563 59.62756,52.682 59.87343,52.600044 c 0.147471,-0.04916 0.521348,0.58741 0.830837,1.414594 0.564237,1.508059 0.580544,2.226657 0.02706,1.192462 -0.386752,-0.722653 -1.193092,-0.702583 -1.747094,0.04349 -0.397518,0.535334 -0.427439,0.541998 -0.296976,0.06614 z m 1.763308,-1.124479 c -0.0022,-0.10914 -0.121291,-0.377031 -0.264584,-0.595312 -0.231583,-0.352778 -0.289479,-0.352778 -0.521063,0 -0.390506,0.594867 -0.325227,0.79375 0.260532,0.79375 0.291041,0 0.527343,-0.0893 0.525115,-0.198438 z m -21.07366,-0.859896 c 0,-1.091406 0.0467,-1.53789 0.103786,-0.992187 0.05708,0.545703 0.05708,1.438672 0,1.984375 -0.05708,0.545703 -0.103786,0.09922 -0.103786,-0.992188 z m 1.236868,1.063763 c -0.625278,-1.168342 0.661987,-2.878493 2.510636,-3.335418 l 0.79375,-0.196189 -0.964092,1.071294 c -0.530251,0.589212 -1.119716,1.501664 -1.309923,2.027672 -0.392421,1.085224 -0.628148,1.184202 -1.030371,0.432641 z"
         style="fill:#d40000;fill-opacity:1;stroke-width:0.264583" />
      <path
         id="path26"
         d="m 41.823743,57.470822 c 0.09166,-0.238864 0.277169,-0.434299 0.412241,-0.434299 0.141301,0 0.12928,-0.217316 -0.02831,-0.511773 -0.400955,-0.749191 -0.345757,-0.908143 0.442493,-1.274218 0.53472,-0.248333 0.781518,-0.255145 0.990123,-0.02733 0.196913,0.215044 0.188701,0.253495 -0.02819,0.13198 -0.188473,-0.105596 -0.279299,0.0066 -0.236411,0.291914 0.0383,0.254862 0.01847,0.314557 -0.04407,0.132656 -0.138269,-0.402131 -0.604084,-0.441096 -0.604084,-0.05053 0,0.154109 -0.139296,0.194109 -0.309547,0.08889 -0.211044,-0.130432 -0.253141,-0.04432 -0.132291,0.270609 0.09749,0.254054 0.177254,0.507974 0.177254,0.564266 0,0.05629 0.20836,0.02345 0.463021,-0.07298 0.410135,-0.155303 0.417572,-0.13169 0.06511,0.206741 -0.218852,0.210139 -0.608531,0.54774 -0.865952,0.750224 -0.410246,0.322693 -0.447461,0.314526 -0.301383,-0.06615 z m 2.024338,-1.786532 c 0.07198,-0.202157 0.01601,-0.590286 -0.124363,-0.862508 -0.194043,-0.376298 -0.174693,-0.445177 0.08072,-0.287326 0.230901,0.142705 0.288174,0.08314 0.183168,-0.190502 -0.08403,-0.218969 -0.04655,-0.565923 0.08328,-0.771008 0.158026,-0.249626 0.237392,0.03738 0.240104,0.868275 0.0022,0.682636 -0.130457,1.324287 -0.294857,1.425891 -0.182662,0.112892 -0.248014,0.04179 -0.168044,-0.182822 z m -4.475444,-2.351934 c 0,-0.945885 0.04802,-1.332838 0.106712,-0.859895 0.05869,0.472942 0.05869,1.246849 0,1.719791 -0.05869,0.472943 -0.106712,0.08599 -0.106712,-0.859896 z m 1.480769,1.580226 c -0.262969,-1.491342 -0.170885,-2.059784 0.440482,-2.719115 0.363721,-0.392257 0.745789,-0.722042 0.849041,-0.732855 0.103251,-0.01081 0.485386,-0.06544 0.849188,-0.121393 0.608227,-0.09354 0.620948,-0.07599 0.158068,0.218099 -0.779073,0.494986 -1.303864,1.165364 -1.398689,1.786708 -0.07905,0.518007 -0.84687,1.859034 -0.89809,1.568556 z m 0.551211,-1.035444 c 0,-0.136933 -0.09922,-0.310289 -0.220486,-0.385236 -0.121267,-0.07495 -0.220486,0.03709 -0.220486,0.248968 0,0.21188 0.09922,0.385236 0.220486,0.385236 0.121267,0 0.220486,-0.112035 0.220486,-0.248968 z m 0.0913,-0.953068 c -0.08617,-0.224557 -0.213419,-0.351541 -0.282774,-0.282186 -0.06935,0.06936 -0.04762,0.253084 0.0483,0.408286 0.260892,0.422132 0.41338,0.340125 0.234473,-0.1261 z"
         style="fill:#d40000;fill-opacity:1;stroke-width:0.264583" />
    </g>
  </g>
</svg>
